<svg width="120" height="60" viewBox="0 0 120 60" fill="none" xmlns="http://www.w3.org/2000/svg">
<path d="M109.673 0.980957C104.49 0.980957 99.6943 3.65797 97.0583 8.02572L66.3018 59.0189H74.409C80.2236 59.0189 85.5841 55.9626 88.4527 51.0204L100.636 30.0054L117.459 0.980957H109.684H109.673Z" fill="#96D4E9"/>
<path d="M74.6636 0.980957C69.4803 0.980957 64.6846 3.65797 62.0487 8.02572L31.2921 59.0189H39.3993C45.214 59.0189 50.5745 55.9626 53.443 51.0204L65.626 30.0054L82.4497 0.980957H74.6747H74.6636Z" fill="#96D4E9"/>
<path d="M66.9554 0.980957H26.674C21.4021 0.980957 16.5399 3.75551 13.9372 8.24248L12.0544 11.4939H56.2233L58.4716 7.7656C60.432 4.51417 62.8021 2.01058 66.9665 0.980957" fill="#96D4E9"/>
<path d="M82.5167 25.8002L66.4019 53.5999V35.0559L82.5167 7.25623V25.8002Z" fill="#96D4E9"/>
<path d="M117.448 7.25623L101.3 35.0559V59.0189C110.005 59.0189 117.094 52.2776 117.426 43.8348C117.426 43.6288 117.437 43.4229 117.437 43.217V7.25623H117.448Z" fill="#96D4E9"/>
<path d="M25.1014 21.5409L2.54071 59.019H10.6479C16.4626 59.019 21.8231 55.9627 24.6916 51.0205L36.8746 30.0055L45.9454 14.2252H38.1926C32.821 14.2252 27.8371 17.0106 25.1125 21.5409" fill="#96D4E9"/>
</svg>
