<svg width="50" height="50" viewBox="0 0 50 50" fill="none" xmlns="http://www.w3.org/2000/svg">
<path d="M31.2688 21V15.9139L22.7688 11L14.2688 15.9139V22" stroke="#97D3DF" stroke-width="2" stroke-linecap="round" stroke-linejoin="round"/>
<path d="M28.7058 38.5L36.5 43L45.2688 37.6978V26.0093L35.7688 21L26.2688 26.0093L26.2713 26" stroke="#97D3DF" stroke-width="2" stroke-linecap="round" stroke-linejoin="round"/>
<path d="M7 28.7816L16.5 24L26 28.7816V39L16.5 45L7 39.9388V28.7816Z" stroke="#97D3DF" stroke-width="2" stroke-linecap="round" stroke-linejoin="round"/>
<path d="M17.2688 18L22.2688 20.8343V24" stroke="#97D3DF" stroke-width="2" stroke-linecap="round" stroke-linejoin="round"/>
<path d="M31.2688 29L36.2688 31.5194V37" stroke="#97D3DF" stroke-width="2" stroke-linecap="round" stroke-linejoin="round"/>
<path d="M12 32L17 34.8343V41" stroke="#97D3DF" stroke-width="2" stroke-linecap="round" stroke-linejoin="round"/>
<path d="M22.2688 21L28.2688 18" stroke="#97D3DF" stroke-width="2" stroke-linecap="round" stroke-linejoin="round"/>
<path d="M37 31L41.2688 29" stroke="#97D3DF" stroke-width="2" stroke-linecap="round" stroke-linejoin="round"/>
<path d="M18 34L22 32" stroke="#97D3DF" stroke-width="2" stroke-linecap="round" stroke-linejoin="round"/>
<path d="M36 13C36 11.9621 35.7164 10.9858 35.2174 10.1343C34.123 8.26711 31.9925 7 29.5435 7C28.6403 7 27.7805 7.17232 27 7.48351" stroke="#97D3DF" stroke-width="2" stroke-linecap="round"/>
<path d="M6.47583 20.8163C6.11508 20.2093 5.83857 19.5383 5.6659 18.8154C4.74585 14.9632 7.12284 11.0945 10.9751 10.1744C12.8936 9.7162 14.8163 10.0758 16.3767 11.0282" stroke="#97D3DF" stroke-width="2" stroke-linecap="round"/>
<path d="M9.7755 22.4172C8.37347 21.3334 6.42184 21.1343 4.82521 22.0673C2.71261 23.3018 2.02152 26.0507 3.28163 28.2072C3.50815 28.5948 3.78231 28.9369 4.09193 29.2302" stroke="#97D3DF" stroke-width="2" stroke-linecap="round"/>
<path d="M33.1921 14.6204C33.84 14.0014 34.6336 13.4978 35.544 13.1656C38.8223 11.9696 42.3739 13.4503 43.4766 16.4729C43.9995 17.9062 43.8778 19.429 43.2557 20.7615" stroke="#97D3DF" stroke-width="2" stroke-linecap="round"/>
</svg>
