<svg width="16" height="13" viewBox="0 0 16 13" fill="none" xmlns="http://www.w3.org/2000/svg">
<g clip-path="url(#clip0_431_4)">
<path d="M8.79999 2.39999H13.6L15.2 5.59999M8.79999 2.39999V8.79999M8.79999 2.39999V1.59999C8.79999 1.38781 8.7157 1.18433 8.56567 1.0343C8.41564 0.884273 8.21216 0.799988 7.99999 0.799988H1.59999C1.38781 0.799988 1.18433 0.884273 1.0343 1.0343C0.884273 1.18433 0.799988 1.38781 0.799988 1.59999V8.79999H2.39999M15.2 5.59999V8.79999H13.6M15.2 5.59999H11.2M8.79999 8.79999H5.59999M8.79999 8.79999H10.4M14 9.99999C14 10.5304 13.7893 11.0391 13.4142 11.4142C13.0391 11.7893 12.5304 12 12 12C11.4696 12 10.9608 11.7893 10.5858 11.4142C10.2107 11.0391 9.99999 10.5304 9.99999 9.99999C9.99999 9.46955 10.2107 8.96085 10.5858 8.58577C10.9608 8.2107 11.4696 7.99999 12 7.99999C12.5304 7.99999 13.0391 8.2107 13.4142 8.58577C13.7893 8.96085 14 9.46955 14 9.99999ZM5.99999 9.99999C5.99999 10.5304 5.78927 11.0391 5.4142 11.4142C5.03913 11.7893 4.53042 12 3.99999 12C3.46955 12 2.96085 11.7893 2.58577 11.4142C2.2107 11.0391 1.99999 10.5304 1.99999 9.99999C1.99999 9.46955 2.2107 8.96085 2.58577 8.58577C2.96085 8.2107 3.46955 7.99999 3.99999 7.99999C4.53042 7.99999 5.03913 8.2107 5.4142 8.58577C5.78927 8.96085 5.99999 9.46955 5.99999 9.99999Z" stroke="#BB2749" stroke-width="1.5" stroke-linecap="round" stroke-linejoin="round"/>
</g>
<defs>
<clipPath id="clip0_431_4">
<rect width="16" height="12.8" fill="white"/>
</clipPath>
</defs>
</svg>
